<mxfile host="app.diagrams.net" modified="2023-10-03T02:25:20.624Z" agent="Mozilla/5.0 (Windows NT 10.0; Win64; x64) AppleWebKit/537.36 (KHTML, like Gecko) Chrome/117.0.0.0 Safari/537.36" etag="3_0x3cnNzLYBg9MBKMWl" version="22.0.0" type="device">
  <diagram id="C5RBs43oDa-KdzZeNtuy" name="Page-1">
    <mxGraphModel dx="1194" dy="512" grid="1" gridSize="10" guides="1" tooltips="1" connect="1" arrows="1" fold="1" page="1" pageScale="1" pageWidth="827" pageHeight="1169" math="0" shadow="0">
      <root>
        <mxCell id="WIyWlLk6GJQsqaUBKTNV-0" />
        <mxCell id="WIyWlLk6GJQsqaUBKTNV-1" parent="WIyWlLk6GJQsqaUBKTNV-0" />
        <mxCell id="SY9gWj24wt-QvZfOAbRc-22" value="Person" style="swimlane;fontStyle=1;align=center;verticalAlign=top;childLayout=stackLayout;horizontal=1;startSize=26;horizontalStack=0;resizeParent=1;resizeParentMax=0;resizeLast=0;collapsible=1;marginBottom=0;whiteSpace=wrap;html=1;rounded=0;" parent="WIyWlLk6GJQsqaUBKTNV-1" vertex="1">
          <mxGeometry x="220" y="30" width="160" height="170" as="geometry" />
        </mxCell>
        <mxCell id="SY9gWj24wt-QvZfOAbRc-23" value="#id : int&lt;br style=&quot;border-color: var(--border-color);&quot;&gt;#name : string&lt;br style=&quot;border-color: var(--border-color);&quot;&gt;#day : int&lt;br style=&quot;border-color: var(--border-color);&quot;&gt;#month : int&lt;br style=&quot;border-color: var(--border-color);&quot;&gt;#year : int" style="text;strokeColor=none;fillColor=none;align=left;verticalAlign=top;spacingLeft=4;spacingRight=4;overflow=hidden;rotatable=0;points=[[0,0.5],[1,0.5]];portConstraint=eastwest;whiteSpace=wrap;html=1;rounded=0;" parent="SY9gWj24wt-QvZfOAbRc-22" vertex="1">
          <mxGeometry y="26" width="160" height="84" as="geometry" />
        </mxCell>
        <mxCell id="SY9gWj24wt-QvZfOAbRc-24" value="" style="line;strokeWidth=1;fillColor=none;align=left;verticalAlign=middle;spacingTop=-1;spacingLeft=3;spacingRight=3;rotatable=0;labelPosition=right;points=[];portConstraint=eastwest;strokeColor=inherit;rounded=0;" parent="SY9gWj24wt-QvZfOAbRc-22" vertex="1">
          <mxGeometry y="110" width="160" height="8" as="geometry" />
        </mxCell>
        <mxCell id="SY9gWj24wt-QvZfOAbRc-25" value="getter(): void&lt;br&gt;setter(): void&lt;br&gt;hienThi(): void" style="text;strokeColor=none;fillColor=none;align=left;verticalAlign=top;spacingLeft=4;spacingRight=4;overflow=hidden;rotatable=0;points=[[0,0.5],[1,0.5]];portConstraint=eastwest;whiteSpace=wrap;html=1;rounded=0;" parent="SY9gWj24wt-QvZfOAbRc-22" vertex="1">
          <mxGeometry y="118" width="160" height="52" as="geometry" />
        </mxCell>
        <mxCell id="SY9gWj24wt-QvZfOAbRc-29" value="Student" style="swimlane;fontStyle=1;align=center;verticalAlign=top;childLayout=stackLayout;horizontal=1;startSize=26;horizontalStack=0;resizeParent=1;resizeParentMax=0;resizeLast=0;collapsible=1;marginBottom=0;whiteSpace=wrap;html=1;rounded=0;" parent="WIyWlLk6GJQsqaUBKTNV-1" vertex="1">
          <mxGeometry x="40" y="300" width="190" height="160" as="geometry" />
        </mxCell>
        <mxCell id="SY9gWj24wt-QvZfOAbRc-30" value="#khoa : string&lt;br&gt;#vien : string&lt;br&gt;#danhSachMonHoc: vector &amp;lt;HP&amp;gt;" style="text;strokeColor=none;fillColor=none;align=left;verticalAlign=top;spacingLeft=4;spacingRight=4;overflow=hidden;rotatable=0;points=[[0,0.5],[1,0.5]];portConstraint=eastwest;whiteSpace=wrap;html=1;rounded=0;" parent="SY9gWj24wt-QvZfOAbRc-29" vertex="1">
          <mxGeometry y="26" width="190" height="84" as="geometry" />
        </mxCell>
        <mxCell id="SY9gWj24wt-QvZfOAbRc-31" value="" style="line;strokeWidth=1;fillColor=none;align=left;verticalAlign=middle;spacingTop=-1;spacingLeft=3;spacingRight=3;rotatable=0;labelPosition=right;points=[];portConstraint=eastwest;strokeColor=inherit;rounded=0;" parent="SY9gWj24wt-QvZfOAbRc-29" vertex="1">
          <mxGeometry y="110" width="190" height="8" as="geometry" />
        </mxCell>
        <mxCell id="SY9gWj24wt-QvZfOAbRc-32" value="addHP(HP hocPhan) : void&lt;br&gt;hienThiHP() : void" style="text;strokeColor=none;fillColor=none;align=left;verticalAlign=top;spacingLeft=4;spacingRight=4;overflow=hidden;rotatable=0;points=[[0,0.5],[1,0.5]];portConstraint=eastwest;whiteSpace=wrap;html=1;rounded=0;" parent="SY9gWj24wt-QvZfOAbRc-29" vertex="1">
          <mxGeometry y="118" width="190" height="42" as="geometry" />
        </mxCell>
        <mxCell id="SY9gWj24wt-QvZfOAbRc-33" value="Lecturer" style="swimlane;fontStyle=1;align=center;verticalAlign=top;childLayout=stackLayout;horizontal=1;startSize=26;horizontalStack=0;resizeParent=1;resizeParentMax=0;resizeLast=0;collapsible=1;marginBottom=0;whiteSpace=wrap;html=1;rounded=0;" parent="WIyWlLk6GJQsqaUBKTNV-1" vertex="1">
          <mxGeometry x="280" y="300" width="206" height="160" as="geometry" />
        </mxCell>
        <mxCell id="SY9gWj24wt-QvZfOAbRc-34" value="#subject : string&lt;br&gt;#position : string&lt;br&gt;#danhSachGiangDay: vector &amp;lt;HP&amp;gt;" style="text;strokeColor=none;fillColor=none;align=left;verticalAlign=top;spacingLeft=4;spacingRight=4;overflow=hidden;rotatable=0;points=[[0,0.5],[1,0.5]];portConstraint=eastwest;whiteSpace=wrap;html=1;rounded=0;" parent="SY9gWj24wt-QvZfOAbRc-33" vertex="1">
          <mxGeometry y="26" width="206" height="84" as="geometry" />
        </mxCell>
        <mxCell id="SY9gWj24wt-QvZfOAbRc-35" value="" style="line;strokeWidth=1;fillColor=none;align=left;verticalAlign=middle;spacingTop=-1;spacingLeft=3;spacingRight=3;rotatable=0;labelPosition=right;points=[];portConstraint=eastwest;strokeColor=inherit;rounded=0;" parent="SY9gWj24wt-QvZfOAbRc-33" vertex="1">
          <mxGeometry y="110" width="206" height="8" as="geometry" />
        </mxCell>
        <mxCell id="SY9gWj24wt-QvZfOAbRc-36" value="addHP(HP hocPhan) : void&lt;br&gt;hienThiHP() : void" style="text;strokeColor=none;fillColor=none;align=left;verticalAlign=top;spacingLeft=4;spacingRight=4;overflow=hidden;rotatable=0;points=[[0,0.5],[1,0.5]];portConstraint=eastwest;whiteSpace=wrap;html=1;rounded=0;" parent="SY9gWj24wt-QvZfOAbRc-33" vertex="1">
          <mxGeometry y="118" width="206" height="42" as="geometry" />
        </mxCell>
        <mxCell id="SY9gWj24wt-QvZfOAbRc-37" value="Subject" style="swimlane;fontStyle=1;align=center;verticalAlign=top;childLayout=stackLayout;horizontal=1;startSize=26;horizontalStack=0;resizeParent=1;resizeParentMax=0;resizeLast=0;collapsible=1;marginBottom=0;whiteSpace=wrap;html=1;rounded=0;" parent="WIyWlLk6GJQsqaUBKTNV-1" vertex="1">
          <mxGeometry x="550" y="30" width="190" height="170" as="geometry" />
        </mxCell>
        <mxCell id="SY9gWj24wt-QvZfOAbRc-38" value="#maHP : string&lt;br&gt;#tinChi : int&amp;nbsp;" style="text;strokeColor=none;fillColor=none;align=left;verticalAlign=top;spacingLeft=4;spacingRight=4;overflow=hidden;rotatable=0;points=[[0,0.5],[1,0.5]];portConstraint=eastwest;whiteSpace=wrap;html=1;rounded=0;" parent="SY9gWj24wt-QvZfOAbRc-37" vertex="1">
          <mxGeometry y="26" width="190" height="84" as="geometry" />
        </mxCell>
        <mxCell id="SY9gWj24wt-QvZfOAbRc-39" value="" style="line;strokeWidth=1;fillColor=none;align=left;verticalAlign=middle;spacingTop=-1;spacingLeft=3;spacingRight=3;rotatable=0;labelPosition=right;points=[];portConstraint=eastwest;strokeColor=inherit;rounded=0;" parent="SY9gWj24wt-QvZfOAbRc-37" vertex="1">
          <mxGeometry y="110" width="190" height="8" as="geometry" />
        </mxCell>
        <mxCell id="SY9gWj24wt-QvZfOAbRc-40" value="getter(): void&lt;br style=&quot;border-color: var(--border-color);&quot;&gt;setter(): void&lt;br style=&quot;border-color: var(--border-color);&quot;&gt;hienThi(): void" style="text;strokeColor=none;fillColor=none;align=left;verticalAlign=top;spacingLeft=4;spacingRight=4;overflow=hidden;rotatable=0;points=[[0,0.5],[1,0.5]];portConstraint=eastwest;whiteSpace=wrap;html=1;rounded=0;" parent="SY9gWj24wt-QvZfOAbRc-37" vertex="1">
          <mxGeometry y="118" width="190" height="52" as="geometry" />
        </mxCell>
        <mxCell id="SY9gWj24wt-QvZfOAbRc-41" value="HP" style="swimlane;fontStyle=1;align=center;verticalAlign=top;childLayout=stackLayout;horizontal=1;startSize=26;horizontalStack=0;resizeParent=1;resizeParentMax=0;resizeLast=0;collapsible=1;marginBottom=0;whiteSpace=wrap;html=1;rounded=0;" parent="WIyWlLk6GJQsqaUBKTNV-1" vertex="1">
          <mxGeometry x="560" y="300" width="160" height="144" as="geometry" />
        </mxCell>
        <mxCell id="SY9gWj24wt-QvZfOAbRc-42" value="#maLopHP : string&lt;br&gt;#diaChi: string&lt;br&gt;#siSo : int" style="text;strokeColor=none;fillColor=none;align=left;verticalAlign=top;spacingLeft=4;spacingRight=4;overflow=hidden;rotatable=0;points=[[0,0.5],[1,0.5]];portConstraint=eastwest;whiteSpace=wrap;html=1;rounded=0;" parent="SY9gWj24wt-QvZfOAbRc-41" vertex="1">
          <mxGeometry y="26" width="160" height="84" as="geometry" />
        </mxCell>
        <mxCell id="SY9gWj24wt-QvZfOAbRc-43" value="" style="line;strokeWidth=1;fillColor=none;align=left;verticalAlign=middle;spacingTop=-1;spacingLeft=3;spacingRight=3;rotatable=0;labelPosition=right;points=[];portConstraint=eastwest;strokeColor=inherit;rounded=0;" parent="SY9gWj24wt-QvZfOAbRc-41" vertex="1">
          <mxGeometry y="110" width="160" height="8" as="geometry" />
        </mxCell>
        <mxCell id="SY9gWj24wt-QvZfOAbRc-44" value="+ method(type): type" style="text;strokeColor=none;fillColor=none;align=left;verticalAlign=top;spacingLeft=4;spacingRight=4;overflow=hidden;rotatable=0;points=[[0,0.5],[1,0.5]];portConstraint=eastwest;whiteSpace=wrap;html=1;rounded=0;" parent="SY9gWj24wt-QvZfOAbRc-41" vertex="1">
          <mxGeometry y="118" width="160" height="26" as="geometry" />
        </mxCell>
        <mxCell id="SY9gWj24wt-QvZfOAbRc-56" value="Extends" style="endArrow=block;endSize=16;endFill=0;html=1;rounded=0;exitX=0.536;exitY=-0.019;exitDx=0;exitDy=0;exitPerimeter=0;" parent="WIyWlLk6GJQsqaUBKTNV-1" source="SY9gWj24wt-QvZfOAbRc-33" target="SY9gWj24wt-QvZfOAbRc-25" edge="1">
          <mxGeometry width="160" relative="1" as="geometry">
            <mxPoint x="343" y="224" as="sourcePoint" />
            <mxPoint x="503" y="224" as="targetPoint" />
          </mxGeometry>
        </mxCell>
        <mxCell id="SY9gWj24wt-QvZfOAbRc-57" value="Extends" style="endArrow=block;endSize=16;endFill=0;html=1;rounded=0;exitX=0.5;exitY=0;exitDx=0;exitDy=0;" parent="WIyWlLk6GJQsqaUBKTNV-1" source="SY9gWj24wt-QvZfOAbRc-29" target="SY9gWj24wt-QvZfOAbRc-25" edge="1">
          <mxGeometry width="160" relative="1" as="geometry">
            <mxPoint x="135" y="310" as="sourcePoint" />
            <mxPoint x="280" y="200" as="targetPoint" />
          </mxGeometry>
        </mxCell>
        <mxCell id="SY9gWj24wt-QvZfOAbRc-58" value="Extends" style="endArrow=block;endSize=16;endFill=0;html=1;rounded=0;entryX=0.558;entryY=0.981;entryDx=0;entryDy=0;entryPerimeter=0;exitX=0.5;exitY=0;exitDx=0;exitDy=0;" parent="WIyWlLk6GJQsqaUBKTNV-1" source="SY9gWj24wt-QvZfOAbRc-41" target="SY9gWj24wt-QvZfOAbRc-40" edge="1">
          <mxGeometry width="160" relative="1" as="geometry">
            <mxPoint x="470" y="280" as="sourcePoint" />
            <mxPoint x="630" y="280" as="targetPoint" />
          </mxGeometry>
        </mxCell>
        <mxCell id="SY9gWj24wt-QvZfOAbRc-65" value="" style="endArrow=none;html=1;rounded=0;exitX=0.434;exitY=1.058;exitDx=0;exitDy=0;exitPerimeter=0;entryX=0.516;entryY=0.976;entryDx=0;entryDy=0;entryPerimeter=0;" parent="WIyWlLk6GJQsqaUBKTNV-1" source="SY9gWj24wt-QvZfOAbRc-44" edge="1">
          <mxGeometry width="50" height="50" relative="1" as="geometry">
            <mxPoint x="605.6800000000001" y="491.01" as="sourcePoint" />
            <mxPoint x="109.99999999999997" y="460.00199999999995" as="targetPoint" />
            <Array as="points">
              <mxPoint x="351.96" y="531.01" />
            </Array>
          </mxGeometry>
        </mxCell>
        <mxCell id="SY9gWj24wt-QvZfOAbRc-66" value="" style="line;strokeWidth=1;fillColor=none;align=left;verticalAlign=middle;spacingTop=-1;spacingLeft=3;spacingRight=3;rotatable=0;labelPosition=right;points=[];portConstraint=eastwest;strokeColor=inherit;" parent="WIyWlLk6GJQsqaUBKTNV-1" vertex="1">
          <mxGeometry x="486" y="360" width="74" height="8" as="geometry" />
        </mxCell>
        <mxCell id="EuQQSHRucDrRrFBRlVeI-0" value="1...*" style="text;html=1;strokeColor=none;fillColor=none;align=center;verticalAlign=middle;whiteSpace=wrap;rounded=0;" vertex="1" parent="WIyWlLk6GJQsqaUBKTNV-1">
          <mxGeometry x="560" y="480" width="60" height="30" as="geometry" />
        </mxCell>
        <mxCell id="EuQQSHRucDrRrFBRlVeI-1" value="Text" style="text;html=1;strokeColor=none;fillColor=none;align=center;verticalAlign=middle;whiteSpace=wrap;rounded=0;" vertex="1" parent="WIyWlLk6GJQsqaUBKTNV-1">
          <mxGeometry x="380" y="250" width="60" height="30" as="geometry" />
        </mxCell>
        <mxCell id="EuQQSHRucDrRrFBRlVeI-2" value="1...*" style="text;html=1;strokeColor=none;fillColor=none;align=center;verticalAlign=middle;whiteSpace=wrap;rounded=0;" vertex="1" parent="WIyWlLk6GJQsqaUBKTNV-1">
          <mxGeometry x="490" y="326" width="60" height="30" as="geometry" />
        </mxCell>
      </root>
    </mxGraphModel>
  </diagram>
</mxfile>
